<?xml version="1.0" encoding="UTF-8" standalone="no"?>
<svg
   xmlns:dc="http://purl.org/dc/elements/1.1/"
   xmlns:cc="http://creativecommons.org/ns#"
   xmlns:rdf="http://www.w3.org/1999/02/22-rdf-syntax-ns#"
   xmlns:svg="http://www.w3.org/2000/svg"
   xmlns="http://www.w3.org/2000/svg"
   xmlns:sodipodi="http://sodipodi.sourceforge.net/DTD/sodipodi-0.dtd"
   xmlns:inkscape="http://www.inkscape.org/namespaces/inkscape"
   width="93.758438"
   height="84.332199"
   viewBox="0 0 93.758438 84.332199"
   fill="none"
   version="1.1"
   id="svg12"
   sodipodi:docname="strzalka.svg"
   inkscape:version="1.0.2 (e86c870879, 2021-01-15, custom)">
  <metadata
     id="metadata18">
    <rdf:RDF>
      <cc:Work
         rdf:about="">
        <dc:format>image/svg+xml</dc:format>
        <dc:type
           rdf:resource="http://purl.org/dc/dcmitype/StillImage" />
        <dc:title></dc:title>
      </cc:Work>
    </rdf:RDF>
  </metadata>
  <defs
     id="defs16" />
  <sodipodi:namedview
     pagecolor="#ffffff"
     bordercolor="#666666"
     borderopacity="1"
     objecttolerance="10"
     gridtolerance="10"
     guidetolerance="10"
     inkscape:pageopacity="0"
     inkscape:pageshadow="2"
     inkscape:window-width="1920"
     inkscape:window-height="1027"
     id="namedview14"
     showgrid="false"
     fit-margin-top="0"
     fit-margin-left="0"
     fit-margin-right="0"
     fit-margin-bottom="0"
     inkscape:zoom="5.8120728"
     inkscape:cx="44.242032"
     inkscape:cy="49.888663"
     inkscape:window-x="1912"
     inkscape:window-y="87"
     inkscape:window-maximized="1"
     inkscape:current-layer="svg12" />
  <path
     d="m 42.004639,61.129737 0.3017,-0.9534 z m 14.0637,-20.8361 -0.7208,0.6932 z m -13.762,19.8827 c 3.7716,1.1935 6.8705,1.0062 9.2877,0.0209 2.4218,-0.9872 4.2454,-2.8103 5.4042,-5.0387 2.3423,-4.5041 1.8935,-10.4868 -1.6507,-14.1717 l 1.4415,-1.3864 c 4.2274,4.3953 4.6597,11.3348 1.9837,16.4808 -1.3503,2.5966 -3.5107,4.7805 -6.4238,5.968 -2.9178,1.1894 -6.5047,1.3445 -10.6461,0.0339 z m 13.0412,-19.1895 c -6.3238,-6.5749 -16.5066,-8.2553 -26.1291,-2.4199 -9.6523,5.8534 -18.84357,19.3614 -22.6608901,43.3559 l -1.975161,-0.3142 c 3.868941,-24.3191 13.2580511,-38.4808 23.5989511,-44.7518 10.3707,-6.2891 21.5939,-4.5487 28.6077,2.7436 z m 38.4109,-38.9868402 c -12.3415,0 -24.2841,5.06123 -34.0179,11.5609402 -9.7406,6.5042 -17.1533,14.3711 -20.4536,19.8224 l -1.7109,-1.0358 c 3.4859,-5.7578 11.1306,-13.8237 21.0538,-20.4499 C 68.559939,5.2669368 80.887639,0 93.758439,0 Z m -54.4715,31.3833402 c -3.2982,5.4478 -4.7361,11.5389 -4.2204,16.576 0.5145,5.0259 2.9343,8.8544 7.2398,10.217 l -0.6035,1.9068 c -5.2984,-1.6768 -8.0583,-6.376 -8.6259,-11.9201 -0.5664,-5.5329 1.0111,-12.0542 4.4991,-17.8155 z"
     stroke-width="2"
     stroke="#010101"
     id="path10" />
  <path
     d="M 0.97823403,64.346916 4.849514,82.597195 20.150214,71.190745"
     stroke="#010101"
     stroke-width="3"
     id="path2" />

</svg>
